<svg xmlns="http://www.w3.org/2000/svg" xmlns:xlink="http://www.w3.org/1999/xlink" width="150" zoomAndPan="magnify" viewBox="0 0 112.5 112.499997" height="150" preserveAspectRatio="xMidYMid meet"><defs><clipPath id="9d9d9bea1f"><path d="M 11 27 L 66 27 L 66 85.597656 L 11 85.597656 Z M 11 27 " clip-rule="nonzero"></path></clipPath><clipPath id="c0d45332c8"><path d="M 58 29 L 104 29 L 104 85.597656 L 58 85.597656 Z M 58 29 " clip-rule="nonzero"></path></clipPath><clipPath id="9be6161926"><path d="M 100 28 L 108.832031 28 L 108.832031 44 L 100 44 Z M 100 28 " clip-rule="nonzero"></path></clipPath><clipPath id="f66da2e203"><path d="M 101 28 L 108.832031 28 L 108.832031 44 L 101 44 Z M 101 28 " clip-rule="nonzero"></path></clipPath><clipPath id="b0c9ba311b"><path d="M 58 31 L 100 31 L 100 85.597656 L 58 85.597656 Z M 58 31 " clip-rule="nonzero"></path></clipPath><clipPath id="9ac645cb1d"><path d="M 11 47 L 65 47 L 65 85.597656 L 11 85.597656 Z M 11 47 " clip-rule="nonzero"></path></clipPath><clipPath id="c5dcc65827"><path d="M 11 26.609375 L 67 26.609375 L 67 85.597656 L 11 85.597656 Z M 11 26.609375 " clip-rule="nonzero"></path></clipPath><clipPath id="ee794a1ef5"><path d="M 58 29 L 104 29 L 104 85.597656 L 58 85.597656 Z M 58 29 " clip-rule="nonzero"></path></clipPath><clipPath id="5e04bf5b18"><path d="M 100 28 L 108.832031 28 L 108.832031 44 L 100 44 Z M 100 28 " clip-rule="nonzero"></path></clipPath><clipPath id="aa903dd0ae"><path d="M 2.800781 31 L 13 31 L 13 47 L 2.800781 47 Z M 2.800781 31 " clip-rule="nonzero"></path></clipPath></defs><g clip-path="url(#9d9d9bea1f)"><path fill="#f1f1f1" d="M 24.636719 27.238281 C 20.511719 27.238281 15.515625 29.289062 13.855469 35.042969 C 11.816406 42.117188 11.105469 49.238281 11.742188 56.207031 C 12.4375 63.933594 14.804688 71.863281 18.78125 79.78125 C 19.328125 80.867188 20.542969 81.511719 22.027344 81.511719 C 22.761719 81.511719 23.511719 81.34375 24.140625 81.039062 C 25.816406 80.226562 27.058594 78.660156 28.15625 77.277344 L 28.511719 76.835938 C 29.820312 75.203125 31.300781 73.632812 33.269531 73.1875 C 33.542969 73.128906 33.820312 73.097656 34.085938 73.097656 C 35.015625 73.097656 35.949219 73.414062 36.640625 73.96875 C 37.351562 74.527344 37.75 75.273438 37.761719 76.074219 C 37.8125 79.496094 39.390625 82.5625 41.882812 84.082031 C 42.898438 84.699219 44.09375 85.023438 45.332031 85.023438 C 47.398438 85.023438 49.242188 84.140625 50.261719 82.664062 C 57.15625 72.714844 62.050781 61.148438 64.40625 49.214844 C 64.925781 46.628906 65.328125 43.957031 65.609375 41.265625 C 65.992188 37.671875 64.402344 33.910156 61.558594 31.683594 C 60.054688 30.503906 57.746094 29.832031 55.222656 29.832031 C 53.410156 29.832031 50.671875 30.183594 47.945312 31.859375 C 45.84375 33.15625 43.082031 33.867188 40.171875 33.867188 C 38.351562 33.867188 36.5 33.582031 34.820312 33.039062 C 32.820312 32.398438 31.929688 31.324219 30.984375 30.1875 C 30.035156 29.046875 29.054688 27.867188 26.804688 27.433594 C 26.121094 27.304688 25.390625 27.238281 24.636719 27.238281 " fill-opacity="1" fill-rule="nonzero"></path></g><g clip-path="url(#c0d45332c8)"><path fill="#f1f1f1" d="M 87.976562 29.4375 C 84.605469 29.4375 81.457031 30.796875 79.550781 33.070312 C 78.777344 33.992188 77.753906 34.441406 76.414062 34.441406 C 74.453125 34.441406 72.1875 33.464844 70.371094 32.679688 C 69.40625 32.261719 68.335938 31.9375 67.269531 31.742188 C 66.5 31.597656 65.757812 31.523438 65.070312 31.523438 C 64.101562 31.523438 63.28125 31.667969 62.621094 31.949219 L 62.15625 32.148438 L 62.5 32.519531 C 64.660156 34.878906 65.910156 38.394531 65.613281 41.269531 C 64.640625 50.527344 62.226562 59.550781 58.433594 68.09375 L 58.386719 68.203125 L 58.414062 68.324219 C 59.71875 73.808594 61.976562 77.894531 66.195312 82.433594 C 67.375 83.707031 70.433594 85.242188 72.464844 85.242188 C 72.503906 85.242188 72.542969 85.242188 72.582031 85.238281 C 73.308594 85.207031 73.839844 84.980469 74.167969 84.570312 C 75.6875 82.671875 76.375 80.324219 76.847656 78.277344 C 76.953125 77.804688 77.035156 77.3125 77.128906 76.769531 C 77.460938 74.828125 77.777344 73.003906 79.328125 72.074219 C 79.730469 71.835938 80.183594 71.714844 80.683594 71.714844 C 82.394531 71.714844 84.410156 73.175781 85.511719 74.613281 C 86.082031 75.355469 86.578125 76.167969 87.058594 76.957031 C 88.433594 79.203125 89.726562 81.3125 92.304688 81.375 L 92.441406 81.375 C 95.9375 81.375 99.121094 78.425781 99.390625 74.929688 C 99.421875 74.5 99.457031 74.132812 99.503906 73.777344 C 99.835938 70.492188 100.5 67.214844 101.140625 64.050781 L 101.1875 63.832031 C 101.515625 62.230469 101.808594 60.785156 102.074219 59.324219 C 102.933594 54.609375 103.660156 49.054688 102.542969 43.59375 C 101.375 37.941406 98.160156 33.207031 93.941406 30.929688 C 92.136719 29.953125 90.074219 29.4375 87.976562 29.4375 " fill-opacity="1" fill-rule="nonzero"></path></g><g clip-path="url(#9be6161926)"><path fill="#f1f1f1" d="M 100.824219 38.5625 C 103.363281 36.550781 105.035156 33.46875 105.347656 30.230469 C 105.421875 29.460938 106.164062 28.820312 106.933594 28.867188 C 107.703125 28.910156 108.367188 29.636719 108.347656 30.410156 C 108.242188 35.234375 106.011719 39.972656 102.371094 43.105469 C 101.894531 41.605469 101.417969 40.105469 100.824219 38.5625 " fill-opacity="1" fill-rule="nonzero"></path></g><g clip-path="url(#f66da2e203)"><path fill="#dcdede" d="M 106.660156 28.8125 C 107.445312 33.425781 105.558594 38.40625 101.914062 41.425781 C 102.113281 41.984375 102.3125 42.542969 102.503906 43.042969 C 106.371094 39.925781 108.542969 34.792969 108.09375 29.828125 C 108.027344 29.128906 107.226562 28.613281 106.660156 28.8125 " fill-opacity="1" fill-rule="nonzero"></path></g><path fill="#fefefe" d="M 96.328125 36.339844 C 94.429688 33.191406 90.589844 31.351562 86.960938 31.855469 C 86.039062 31.980469 85.285156 32.878906 85.3125 33.816406 C 85.339844 34.757812 86.148438 35.609375 87.078125 35.679688 C 90.746094 35.960938 94.226562 38.089844 96.167969 41.234375 C 96.382812 41.582031 96.855469 41.746094 97.238281 41.609375 C 97.625 41.472656 97.882812 41.042969 97.832031 40.636719 C 97.621094 39.023438 97.039062 37.515625 96.328125 36.339844 " fill-opacity="1" fill-rule="nonzero"></path><path fill="#fefefe" d="M 98.4375 42.703125 C 97.929688 42.25 96.976562 42.554688 96.820312 43.222656 C 96.667969 43.886719 97.386719 44.585938 98.042969 44.410156 C 98.699219 44.230469 99.011719 43.214844 98.4375 42.703125 " fill-opacity="1" fill-rule="nonzero"></path><path fill="#fefefe" d="M 24.980469 30.5625 C 22.210938 30.320312 19.570312 32.089844 17.980469 34.390625 C 16.386719 36.6875 15.644531 39.457031 14.929688 42.164062 C 14.609375 43.386719 15.550781 44.78125 16.796875 44.929688 C 18.046875 45.078125 19.285156 43.941406 19.253906 42.675781 C 19.164062 39.207031 21.636719 35.835938 24.953125 34.894531 C 25.839844 34.644531 26.5 33.730469 26.460938 32.800781 C 26.421875 31.871094 25.816406 30.632812 24.980469 30.5625 " fill-opacity="1" fill-rule="nonzero"></path><path fill="#fefefe" d="M 17.398438 46.433594 C 16.804688 45.65625 15.582031 45.460938 14.773438 46.011719 C 13.964844 46.5625 13.695312 47.777344 14.195312 48.625 C 14.691406 49.46875 15.878906 49.816406 16.75 49.367188 C 17.617188 48.917969 18.28125 47.589844 17.398438 46.433594 " fill-opacity="1" fill-rule="nonzero"></path><path fill="#f1f1f1" d="M 12.425781 40.550781 C 10.554688 37.894531 8.683594 35.238281 6.8125 32.582031 C 6.300781 31.855469 5.265625 31.554688 4.445312 31.894531 C 3.628906 32.238281 3.109375 33.183594 3.257812 34.066406 C 4.074219 38.902344 7.179688 43.296875 11.703125 45.757812 C 12 44.042969 12.296875 42.324219 12.425781 40.550781 " fill-opacity="1" fill-rule="nonzero"></path><path fill="#dcdede" d="M 11.792969 45.5 C 11.90625 44.777344 12.015625 44.050781 12.125 43.328125 C 9.894531 42.316406 8.03125 40.691406 6.835938 38.660156 C 5.640625 36.628906 5.117188 34.203125 5.414062 31.929688 C 4.320312 31.601562 3.066406 32.679688 3.21875 33.816406 C 3.886719 38.8125 7.140625 43.382812 11.792969 45.5 " fill-opacity="1" fill-rule="nonzero"></path><path fill="#dcdede" d="M 32.628906 40.390625 C 32.203125 40.132812 31.660156 40.082031 31.195312 40.253906 C 30.730469 40.425781 30.351562 40.816406 30.195312 41.289062 C 30.132812 41.46875 30.222656 41.6875 30.390625 41.773438 C 30.558594 41.859375 30.785156 41.800781 30.890625 41.644531 C 31.191406 41.214844 31.804688 41.042969 32.28125 41.253906 C 32.496094 41.351562 32.773438 41.25 32.878906 41.039062 C 32.984375 40.828125 32.894531 40.550781 32.628906 40.390625 " fill-opacity="1" fill-rule="nonzero"></path><path fill="#dcdede" d="M 31.949219 45.289062 C 31.796875 46.089844 31.640625 46.890625 31.484375 47.691406 C 31.375 48.265625 31.765625 48.871094 32.304688 49.089844 C 32.847656 49.304688 33.488281 49.175781 33.964844 48.835938 C 34.445312 48.5 34.773438 47.980469 34.980469 47.433594 C 35.191406 46.882812 35.289062 46.300781 35.386719 45.722656 C 35.410156 46.351562 35.429688 46.984375 35.453125 47.613281 C 35.492188 48.785156 34.601562 49.914062 33.460938 50.144531 C 32.324219 50.371094 31.070312 49.667969 30.664062 48.570312 C 30.257812 47.472656 30.746094 46.117188 31.949219 45.289062 " fill-opacity="1" fill-rule="nonzero"></path><path fill="#dcdede" d="M 43.347656 46.554688 C 43.214844 47.199219 43.074219 47.859375 43.140625 48.519531 C 43.207031 49.175781 43.511719 49.84375 44.074219 50.1875 C 44.636719 50.527344 45.472656 50.425781 45.824219 49.867188 C 46.4375 48.894531 46.753906 47.734375 46.71875 46.578125 C 47.128906 47.761719 47.097656 49.089844 46.632812 50.25 C 46.253906 51.1875 45.09375 51.679688 44.128906 51.398438 C 43.164062 51.121094 42.460938 50.179688 42.335938 49.175781 C 42.210938 48.167969 42.617188 47.140625 43.347656 46.554688 " fill-opacity="1" fill-rule="nonzero"></path><path fill="#dcdede" d="M 49.9375 44.179688 C 49.964844 43.601562 49.71875 43.015625 49.289062 42.632812 C 48.855469 42.25 48.246094 42.078125 47.679688 42.175781 C 47.445312 42.21875 47.359375 42.550781 47.480469 42.761719 C 47.597656 42.96875 47.839844 43.070312 48.070312 43.136719 C 48.300781 43.199219 48.546875 43.242188 48.738281 43.382812 C 48.933594 43.527344 49.054688 43.808594 48.929688 44.011719 C 48.75 44.308594 48.960938 44.757812 49.300781 44.804688 C 49.640625 44.855469 49.925781 44.488281 49.9375 44.179688 " fill-opacity="1" fill-rule="nonzero"></path><path fill="#dcdede" d="M 33.433594 53.136719 C 31.945312 55.097656 32.082031 58.128906 33.738281 59.949219 C 35.394531 61.769531 38.378906 62.171875 40.453125 60.851562 C 42.523438 59.527344 43.441406 56.640625 42.515625 54.355469 C 42.832031 56.332031 41.789062 58.457031 40.035156 59.40625 C 38.285156 60.355469 35.949219 60.058594 34.484375 58.703125 C 33.019531 57.34375 32.53125 55.023438 33.433594 53.136719 " fill-opacity="1" fill-rule="nonzero"></path><path fill="#e65845" d="M 33.574219 52.972656 L 33.398438 53.355469 C 32.613281 55.046875 32.875 57.132812 34.050781 58.546875 C 34.945312 59.621094 36.351562 60.261719 37.804688 60.261719 C 38.367188 60.261719 38.910156 60.164062 39.417969 59.976562 C 41.308594 59.269531 42.4375 57.332031 42.601562 54.519531 L 42.636719 53.964844 L 42.121094 54.167969 C 41.160156 54.546875 40.113281 54.742188 39.007812 54.742188 C 37.167969 54.742188 35.363281 54.199219 33.917969 53.210938 Z M 33.574219 52.972656 " fill-opacity="1" fill-rule="nonzero"></path><path fill="#fc9adf" d="M 28.335938 49.488281 C 26.277344 49.253906 24.636719 49.878906 24.515625 50.9375 C 24.453125 51.488281 24.808594 52.03125 25.519531 52.460938 C 26.144531 52.84375 26.996094 53.109375 27.917969 53.214844 C 28.199219 53.25 28.476562 53.265625 28.75 53.265625 C 29.363281 53.265625 29.941406 53.183594 30.421875 53.023438 C 31.210938 52.761719 31.675781 52.316406 31.738281 51.765625 C 31.859375 50.703125 30.398438 49.726562 28.335938 49.488281 " fill-opacity="1" fill-rule="nonzero"></path><path fill="#fc9adf" d="M 48.328125 52.296875 C 46.339844 51.707031 44.617188 52.035156 44.316406 53.058594 C 44.015625 54.085938 45.289062 55.304688 47.273438 55.894531 C 47.917969 56.085938 48.558594 56.183594 49.140625 56.183594 C 49.363281 56.183594 49.578125 56.167969 49.777344 56.140625 C 50.597656 56.019531 51.132812 55.660156 51.289062 55.132812 C 51.589844 54.105469 50.316406 52.886719 48.328125 52.296875 " fill-opacity="1" fill-rule="nonzero"></path><path fill="#ec7161" d="M 71.089844 49.5625 C 69.308594 49.859375 67.585938 50.671875 67.75 51.65625 C 67.867188 52.375 68.902344 52.679688 70.144531 52.679688 C 70.605469 52.679688 71.097656 52.640625 71.582031 52.558594 C 73.363281 52.261719 75.082031 51.449219 74.921875 50.464844 C 74.761719 49.480469 72.871094 49.265625 71.089844 49.5625 " fill-opacity="1" fill-rule="nonzero"></path><path fill="#e65845" d="M 77.929688 50.527344 C 79.679688 50.214844 81.429688 49.898438 83.191406 49.574219 L 83.039062 56.144531 C 83.023438 56.765625 83.007812 57.398438 82.804688 57.984375 C 82.601562 58.566406 82.179688 59.109375 81.59375 59.292969 C 81.003906 59.472656 80.265625 59.1875 80.078125 58.597656 C 79.355469 56.332031 78.636719 54.070312 77.917969 51.804688 C 77.78125 51.378906 77.90625 50.882812 77.929688 50.527344 " fill-opacity="1" fill-rule="nonzero"></path><path fill="#f29b88" d="M 83.097656 54.296875 C 81.589844 54.492188 80.175781 55.359375 79.414062 56.667969 C 79.554688 57.257812 79.71875 57.855469 80.050781 58.367188 C 80.378906 58.875 80.898438 59.292969 81.5 59.351562 C 82.101562 59.410156 82.757812 59.03125 82.886719 58.433594 C 83.167969 57.121094 83.3125 55.777344 83.097656 54.296875 " fill-opacity="1" fill-rule="nonzero"></path><path fill="#dcdede" d="M 70.921875 45.011719 C 71.441406 44.46875 71.960938 43.921875 72.480469 43.378906 C 72.605469 43.246094 72.832031 43.238281 72.96875 43.351562 C 73.101562 43.46875 73.125 43.695312 73.019531 43.839844 C 72.535156 44.480469 72.074219 45.136719 71.636719 45.8125 C 71.457031 46.089844 71.003906 46.132812 70.773438 45.890625 C 70.542969 45.648438 70.671875 45.277344 70.921875 45.011719 " fill-opacity="1" fill-rule="nonzero"></path><path fill="#dcdede" d="M 72.707031 47.558594 C 72.773438 46.546875 73.570312 45.636719 74.558594 45.4375 C 75.542969 45.242188 76.625 45.78125 77.070312 46.6875 C 77.1875 46.925781 76.953125 47.214844 76.695312 47.25 C 76.433594 47.28125 76.1875 47.136719 75.976562 46.976562 C 75.769531 46.816406 75.574219 46.628906 75.324219 46.546875 C 75.066406 46.464844 74.773438 46.511719 74.554688 46.671875 C 74.335938 46.832031 74.199219 47.097656 74.199219 47.371094 C 74.199219 47.714844 73.914062 48.035156 73.574219 48.078125 C 73.230469 48.117188 72.878906 47.871094 72.707031 47.558594 " fill-opacity="1" fill-rule="nonzero"></path><path fill="#dcdede" d="M 87.363281 45.421875 C 87.015625 44.546875 86.042969 43.96875 85.113281 44.089844 C 84.183594 44.207031 83.386719 45.007812 83.261719 45.941406 C 83.222656 46.25 83.585938 46.492188 83.890625 46.441406 C 84.199219 46.390625 84.4375 46.152344 84.640625 45.917969 C 84.84375 45.679688 85.046875 45.421875 85.332031 45.304688 C 85.621094 45.1875 86.019531 45.28125 86.117188 45.578125 C 86.222656 45.90625 86.578125 46.128906 86.917969 46.085938 C 87.257812 46.042969 87.5 45.757812 87.363281 45.421875 " fill-opacity="1" fill-rule="nonzero"></path><path fill="#dcdede" d="M 88.585938 42.53125 C 88.058594 41.960938 87.410156 41.507812 86.695312 41.214844 C 86.488281 41.128906 86.226562 41.226562 86.117188 41.425781 C 86.011719 41.621094 86.078125 41.898438 86.261719 42.023438 C 86.839844 42.429688 87.417969 42.835938 87.996094 43.238281 C 88.183594 43.371094 88.464844 43.339844 88.621094 43.171875 C 88.773438 43.003906 88.769531 42.734375 88.585938 42.53125 " fill-opacity="1" fill-rule="nonzero"></path><path fill="#dcdede" d="M 78.15625 52.667969 C 78.472656 54.828125 79.257812 56.921875 80.4375 58.753906 C 80.703125 59.167969 81.21875 59.410156 81.703125 59.347656 C 82.191406 59.285156 82.628906 58.921875 82.785156 58.453125 C 83.429688 56.496094 83.640625 54.394531 83.398438 52.34375 C 83.730469 53.410156 84.0625 54.488281 84.167969 55.601562 C 84.273438 56.714844 84.09375 58.5625 83.527344 59.523438 C 82.960938 60.484375 82.167969 60.527344 81.058594 60.507812 C 79.945312 60.492188 78.640625 59.625 78.542969 58.507812 C 78.375 56.609375 78.210938 54.710938 78.15625 52.667969 " fill-opacity="1" fill-rule="nonzero"></path><g clip-path="url(#b0c9ba311b)"><path fill="#dcdede" d="M 65.070312 31.523438 C 64.101562 31.523438 63.28125 31.667969 62.621094 31.949219 L 62.15625 32.148438 L 62.5 32.523438 C 64.660156 34.878906 65.910156 38.394531 65.613281 41.269531 C 64.640625 50.527344 62.226562 59.550781 58.433594 68.09375 L 58.386719 68.203125 L 58.414062 68.324219 C 59.722656 73.808594 61.976562 77.894531 66.195312 82.433594 C 67.375 83.707031 70.433594 85.242188 72.464844 85.242188 C 72.503906 85.242188 72.542969 85.242188 72.582031 85.238281 C 73.308594 85.207031 73.839844 84.980469 74.167969 84.570312 C 75.6875 82.675781 76.375 80.324219 76.847656 78.277344 C 76.953125 77.804688 77.035156 77.316406 77.128906 76.769531 C 77.460938 74.828125 77.777344 73.003906 79.328125 72.074219 C 79.730469 71.835938 80.1875 71.714844 80.683594 71.714844 C 82.394531 71.714844 84.410156 73.175781 85.511719 74.613281 C 86.082031 75.355469 86.578125 76.167969 87.058594 76.957031 C 88.433594 79.203125 89.726562 81.3125 92.304688 81.375 L 92.441406 81.375 C 95.9375 81.375 99.121094 78.425781 99.390625 74.933594 C 99.421875 74.5 99.457031 74.136719 99.503906 73.777344 L 99.636719 72.726562 L 98.898438 73.480469 C 97.691406 74.71875 96.148438 75.472656 94.546875 75.613281 C 94.359375 75.628906 94.167969 75.636719 93.980469 75.636719 C 91.039062 75.636719 88.214844 73.628906 87.269531 70.867188 C 86.402344 68.332031 83.847656 66.496094 81.191406 66.496094 C 78.492188 66.511719 75.941406 68.371094 75.09375 70.917969 C 74.484375 72.761719 72.503906 74.046875 70.269531 74.046875 C 69.710938 74.046875 69.167969 73.960938 68.660156 73.792969 C 66.320312 73.027344 64.417969 70.6875 63.808594 67.84375 C 63.320312 65.535156 63.570312 62.882812 64.574219 59.734375 C 64.996094 58.402344 65.519531 57.070312 66.019531 55.785156 C 66.527344 54.496094 67.046875 53.167969 67.476562 51.824219 C 69.515625 45.445312 69.539062 38.398438 67.546875 31.984375 L 67.484375 31.78125 L 67.273438 31.742188 C 66.5 31.597656 65.757812 31.523438 65.070312 31.523438 " fill-opacity="1" fill-rule="nonzero"></path></g><g clip-path="url(#9ac645cb1d)"><path fill="#dcdede" d="M 64.789062 47.285156 L 63.757812 48.957031 C 61.949219 51.890625 60.867188 55.25 59.820312 58.496094 C 59.511719 59.460938 59.191406 60.457031 58.855469 61.421875 C 57.597656 65.0625 55.429688 70.207031 51.148438 72.84375 C 49.675781 73.746094 47.859375 74.246094 46.027344 74.246094 C 42.917969 74.246094 40.363281 72.875 39.191406 70.574219 C 38.453125 69.128906 36.867188 68.300781 34.839844 68.300781 C 33.882812 68.300781 32.910156 68.488281 32.027344 68.84375 C 30.867188 69.304688 29.796875 69.96875 28.765625 70.609375 C 27.679688 71.28125 26.554688 71.972656 25.359375 72.410156 C 24.695312 72.65625 23.960938 72.785156 23.234375 72.785156 C 21.363281 72.785156 19.871094 71.976562 19.25 70.625 C 18.433594 68.867188 17.574219 67.171875 16.742188 65.535156 C 15.148438 62.402344 13.644531 59.441406 12.429688 56.050781 L 11.496094 53.449219 L 11.742188 56.207031 C 12.4375 63.933594 14.804688 71.863281 18.78125 79.78125 C 19.328125 80.867188 20.542969 81.515625 22.027344 81.515625 C 22.761719 81.515625 23.511719 81.347656 24.140625 81.039062 C 25.816406 80.226562 27.058594 78.660156 28.15625 77.277344 L 28.511719 76.835938 C 29.820312 75.207031 31.300781 73.636719 33.269531 73.1875 C 33.542969 73.128906 33.820312 73.097656 34.085938 73.097656 C 35.015625 73.097656 35.949219 73.414062 36.640625 73.96875 C 37.351562 74.527344 37.75 75.273438 37.761719 76.074219 C 37.8125 79.496094 39.390625 82.5625 41.882812 84.082031 C 42.898438 84.699219 44.09375 85.023438 45.332031 85.023438 C 47.398438 85.023438 49.242188 84.144531 50.261719 82.667969 C 57.15625 72.714844 62.050781 61.148438 64.40625 49.214844 Z M 64.789062 47.285156 " fill-opacity="1" fill-rule="nonzero"></path></g><path fill="#ec7161" d="M 92.03125 47.066406 C 91.351562 46.90625 90.476562 46.878906 89.566406 46.980469 C 87.773438 47.1875 86.011719 47.910156 86.125 48.898438 C 86.210938 49.699219 87.457031 50.058594 88.878906 50.058594 C 89.214844 50.058594 89.5625 50.039062 89.90625 50 C 91.699219 49.796875 93.460938 49.074219 93.347656 48.082031 C 93.3125 47.75 93.054688 47.304688 92.03125 47.066406 " fill-opacity="1" fill-rule="nonzero"></path><g clip-path="url(#c5dcc65827)"><path fill="#323a42" d="M 45.359375 85.398438 C 44.105469 85.398438 42.828125 85.070312 41.703125 84.386719 C 39.105469 82.800781 37.457031 79.621094 37.402344 76.078125 C 37.390625 75.390625 37.046875 74.738281 36.425781 74.25 C 35.582031 73.582031 34.375 73.300781 33.351562 73.535156 C 31.480469 73.960938 30.050781 75.480469 28.785156 77.058594 L 28.433594 77.496094 C 27.253906 78.984375 26.03125 80.519531 24.292969 81.363281 C 22.308594 82.328125 19.492188 81.984375 18.464844 79.9375 C 10.804688 64.683594 9.183594 49.964844 13.515625 34.949219 C 14.664062 30.957031 17.296875 28.992188 19.300781 28.050781 C 21.589844 26.972656 24.421875 26.609375 26.871094 27.082031 C 29.242188 27.542969 30.261719 28.769531 31.253906 29.957031 C 32.125 31.003906 33.023438 32.085938 34.925781 32.703125 C 39.292969 34.113281 44.332031 33.660156 47.757812 31.554688 C 52.671875 28.53125 58.859375 29.121094 61.777344 31.402344 C 64.714844 33.695312 66.355469 37.582031 65.964844 41.304688 C 64.398438 56.207031 59.066406 70.582031 50.554688 82.871094 C 49.421875 84.511719 47.421875 85.398438 45.359375 85.398438 M 34.085938 72.742188 C 35.074219 72.742188 36.09375 73.078125 36.863281 73.6875 C 37.65625 74.3125 38.097656 75.160156 38.113281 76.066406 C 38.164062 79.363281 39.679688 82.316406 42.070312 83.773438 C 44.691406 85.371094 48.382812 84.757812 49.972656 82.464844 C 58.417969 70.269531 63.703125 56.011719 65.257812 41.230469 C 65.625 37.746094 64.089844 34.113281 61.34375 31.964844 C 58.613281 29.832031 52.785156 29.300781 48.128906 32.164062 C 44.53125 34.375 39.265625 34.851562 34.710938 33.382812 C 32.613281 32.703125 31.644531 31.542969 30.710938 30.417969 C 29.757812 29.273438 28.859375 28.195312 26.738281 27.785156 C 22.773438 27.019531 16.15625 28.347656 14.195312 35.144531 C 9.917969 49.984375 11.523438 64.527344 19.097656 79.617188 C 19.925781 81.265625 22.339844 81.523438 23.984375 80.722656 C 25.578125 79.949219 26.75 78.476562 27.882812 77.050781 L 28.234375 76.609375 C 29.578125 74.933594 31.113281 73.3125 33.191406 72.839844 C 33.480469 72.773438 33.78125 72.742188 34.085938 72.742188 " fill-opacity="1" fill-rule="nonzero"></path></g><g clip-path="url(#ee794a1ef5)"><path fill="#323a42" d="M 102.886719 43.515625 C 101.707031 37.769531 98.421875 32.945312 94.105469 30.613281 C 89.101562 27.90625 82.589844 28.882812 79.28125 32.835938 C 77.21875 35.300781 73.1875 33.945312 70.335938 32.707031 C 67.582031 31.511719 64.3125 30.929688 62.210938 32.199219 C 62.304688 32.261719 62.398438 32.332031 62.492188 32.414062 C 62.589844 32.503906 62.671875 32.609375 62.742188 32.71875 C 64.621094 31.707031 67.558594 32.28125 70.054688 33.363281 C 73.117188 34.691406 77.457031 36.125 79.824219 33.296875 C 82.925781 29.59375 89.050781 28.691406 93.769531 31.238281 C 97.90625 33.476562 101.054688 38.117188 102.191406 43.660156 C 103.300781 49.070312 102.578125 54.582031 101.722656 59.261719 C 101.449219 60.765625 101.144531 62.261719 100.839844 63.761719 C 100.101562 67.390625 99.335938 71.140625 99.039062 74.902344 C 98.78125 78.191406 95.714844 81.019531 92.441406 81.019531 C 92.398438 81.019531 92.359375 81.019531 92.316406 81.019531 C 89.921875 80.964844 88.675781 78.925781 87.359375 76.769531 C 86.875 75.972656 86.371094 75.148438 85.796875 74.398438 C 84.355469 72.519531 81.339844 70.464844 79.144531 71.769531 C 77.449219 72.78125 77.109375 74.777344 76.78125 76.710938 C 76.695312 77.214844 76.609375 77.71875 76.5 78.199219 C 76.039062 80.199219 75.371094 82.496094 73.886719 84.347656 C 73.625 84.679688 73.179688 84.855469 72.570312 84.878906 C 70.695312 84.9375 67.632812 83.460938 66.453125 82.195312 C 61.894531 77.285156 59.824219 73.066406 58.628906 67.671875 C 58.496094 67.9375 58.296875 68.171875 58.070312 68.355469 C 59.316406 73.578125 61.464844 77.867188 65.9375 82.679688 C 67.191406 84.03125 70.324219 85.597656 72.441406 85.597656 C 72.492188 85.597656 72.542969 85.59375 72.59375 85.59375 C 73.421875 85.5625 74.042969 85.292969 74.441406 84.796875 C 76.011719 82.832031 76.710938 80.4375 77.191406 78.359375 C 77.304688 77.867188 77.390625 77.347656 77.480469 76.832031 C 77.792969 74.976562 78.089844 73.226562 79.503906 72.386719 C 81.308594 71.3125 83.988281 73.210938 85.234375 74.835938 C 85.785156 75.554688 86.277344 76.363281 86.753906 77.144531 C 88.113281 79.367188 89.519531 81.667969 92.300781 81.730469 C 95.972656 81.796875 99.457031 78.648438 99.746094 74.957031 C 100.039062 71.242188 100.800781 67.511719 101.535156 63.90625 C 101.839844 62.402344 102.144531 60.898438 102.421875 59.390625 C 103.289062 54.644531 104.023438 49.046875 102.886719 43.515625 " fill-opacity="1" fill-rule="nonzero"></path></g><g clip-path="url(#5e04bf5b18)"><path fill="#323a42" d="M 108.554688 30.078125 C 108.507812 29.179688 107.722656 28.402344 106.828125 28.378906 C 105.917969 28.367188 105.109375 29.09375 105.019531 29.988281 C 104.707031 33.125 103.085938 36.0625 100.667969 38.039062 C 100.796875 38.257812 100.878906 38.5 100.90625 38.753906 C 103.585938 36.660156 105.386719 33.472656 105.726562 30.058594 C 105.777344 29.53125 106.28125 29.113281 106.8125 29.09375 C 107.335938 29.109375 107.820312 29.585938 107.84375 30.113281 C 108.078125 34.972656 105.886719 39.804688 102.175781 42.882812 C 102.320312 43.074219 102.441406 43.285156 102.53125 43.511719 C 106.46875 40.296875 108.796875 35.203125 108.554688 30.078125 " fill-opacity="1" fill-rule="nonzero"></path></g><g clip-path="url(#aa903dd0ae)"><path fill="#323a42" d="M 3.585938 33.28125 C 3.550781 32.878906 3.792969 32.601562 3.996094 32.4375 C 4.429688 32.097656 5.074219 31.976562 5.570312 32.148438 C 6.5 32.464844 7.125 33.328125 7.792969 34.339844 L 12.363281 41.300781 C 12.394531 40.984375 12.496094 40.691406 12.644531 40.433594 L 8.382812 33.945312 C 7.8125 33.078125 7.035156 31.894531 5.796875 31.472656 C 5.078125 31.226562 4.179688 31.390625 3.5625 31.875 C 3.074219 32.257812 2.832031 32.777344 2.878906 33.339844 C 3.324219 38.746094 6.894531 43.710938 11.726562 46.050781 C 11.75 45.796875 11.820312 45.566406 11.9375 45.359375 C 7.375 43.113281 4.007812 38.402344 3.585938 33.28125 " fill-opacity="1" fill-rule="nonzero"></path></g><path fill="#323a42" d="M 37.816406 60.617188 C 36.292969 60.617188 34.757812 59.953125 33.78125 58.777344 C 32.421875 57.144531 32.214844 54.628906 33.289062 52.796875 C 33.339844 52.707031 33.425781 52.644531 33.523438 52.625 C 33.625 52.605469 33.726562 52.628906 33.808594 52.691406 C 36.238281 54.539062 39.800781 54.921875 42.46875 53.625 C 42.578125 53.570312 42.710938 53.578125 42.8125 53.644531 C 42.917969 53.710938 42.980469 53.828125 42.976562 53.949219 C 42.9375 57.238281 41.714844 59.496094 39.542969 60.308594 C 38.988281 60.515625 38.402344 60.617188 37.816406 60.617188 M 33.71875 53.503906 C 33.003906 55.046875 33.234375 57.011719 34.324219 58.316406 C 35.496094 59.722656 37.585938 60.28125 39.292969 59.640625 C 41.054688 58.980469 42.09375 57.164062 42.25 54.5 C 39.546875 55.570312 36.171875 55.183594 33.71875 53.503906 " fill-opacity="1" fill-rule="nonzero"></path><path fill="#323a42" d="M 30.167969 41.605469 C 30.148438 41.605469 30.125 41.601562 30.101562 41.597656 C 29.910156 41.5625 29.785156 41.375 29.820312 41.179688 C 29.9375 40.574219 30.390625 40.070312 31.035156 39.832031 C 31.679688 39.589844 32.351562 39.679688 32.832031 40.066406 C 32.984375 40.1875 33.007812 40.414062 32.886719 40.566406 C 32.765625 40.71875 32.542969 40.746094 32.386719 40.621094 C 32.109375 40.398438 31.683594 40.351562 31.28125 40.5 C 30.878906 40.648438 30.585938 40.960938 30.515625 41.316406 C 30.484375 41.488281 30.335938 41.605469 30.167969 41.605469 " fill-opacity="1" fill-rule="nonzero"></path><path fill="#323a42" d="M 35.460938 45.167969 C 35.414062 44.273438 34.425781 43.632812 33.542969 43.753906 C 32.660156 43.875 31.945312 44.582031 31.5625 45.394531 C 31.179688 46.203125 31.074219 47.113281 30.976562 48.003906 C 30.863281 49.023438 31.953125 49.894531 32.96875 49.789062 C 33.984375 49.683594 34.804688 48.847656 35.199219 47.902344 C 35.59375 46.957031 35.5 45.925781 35.460938 45.167969 " fill-opacity="1" fill-rule="nonzero"></path><path fill="#323a42" d="M 49.832031 44.34375 C 49.804688 44.34375 49.78125 44.34375 49.757812 44.335938 C 49.566406 44.296875 49.441406 44.105469 49.484375 43.914062 C 49.558594 43.558594 49.410156 43.15625 49.09375 42.863281 C 48.78125 42.566406 48.371094 42.441406 48.027344 42.542969 C 47.839844 42.597656 47.644531 42.484375 47.589844 42.292969 C 47.539062 42.105469 47.648438 41.90625 47.835938 41.855469 C 48.425781 41.683594 49.078125 41.867188 49.578125 42.339844 C 50.082031 42.8125 50.304688 43.457031 50.175781 44.0625 C 50.140625 44.230469 49.996094 44.34375 49.832031 44.34375 " fill-opacity="1" fill-rule="nonzero"></path><path fill="#323a42" d="M 43.441406 45.523438 C 43.828125 44.71875 44.988281 44.515625 45.753906 44.972656 C 46.519531 45.429688 46.90625 46.363281 46.941406 47.257812 C 46.980469 48.15625 46.726562 49.03125 46.472656 49.894531 C 46.183594 50.878906 44.839844 51.253906 43.949219 50.757812 C 43.054688 50.261719 42.621094 49.171875 42.621094 48.144531 C 42.625 47.117188 43.109375 46.207031 43.441406 45.523438 " fill-opacity="1" fill-rule="nonzero"></path><path fill="#323a42" d="M 72.640625 47.855469 C 72.628906 47.855469 72.613281 47.855469 72.601562 47.855469 C 72.40625 47.832031 72.265625 47.652344 72.289062 47.457031 C 72.425781 46.3125 73.339844 45.339844 74.46875 45.140625 C 75.597656 44.941406 76.785156 45.550781 77.296875 46.582031 C 77.382812 46.761719 77.3125 46.976562 77.136719 47.0625 C 76.960938 47.152344 76.75 47.078125 76.660156 46.902344 C 76.292969 46.15625 75.402344 45.699219 74.589844 45.84375 C 73.777344 45.988281 73.089844 46.714844 72.992188 47.542969 C 72.972656 47.722656 72.820312 47.855469 72.640625 47.855469 " fill-opacity="1" fill-rule="nonzero"></path><path fill="#323a42" d="M 70.820312 45.332031 C 70.738281 45.332031 70.65625 45.304688 70.589844 45.246094 C 70.441406 45.117188 70.425781 44.890625 70.554688 44.742188 L 72.070312 42.988281 C 72.199219 42.839844 72.421875 42.820312 72.570312 42.953125 C 72.71875 43.082031 72.734375 43.304688 72.605469 43.457031 L 71.089844 45.210938 C 71.019531 45.292969 70.921875 45.332031 70.820312 45.332031 " fill-opacity="1" fill-rule="nonzero"></path><path fill="#323a42" d="M 83.140625 46.238281 C 83.117188 46.238281 83.097656 46.234375 83.074219 46.230469 C 82.882812 46.195312 82.753906 46.007812 82.789062 45.8125 C 83.003906 44.679688 83.984375 43.773438 85.121094 43.652344 C 86.261719 43.535156 87.40625 44.21875 87.847656 45.285156 C 87.921875 45.46875 87.835938 45.675781 87.652344 45.753906 C 87.476562 45.828125 87.265625 45.742188 87.191406 45.558594 C 86.875 44.792969 86.015625 44.277344 85.195312 44.363281 C 84.375 44.449219 83.640625 45.128906 83.488281 45.949219 C 83.457031 46.117188 83.308594 46.238281 83.140625 46.238281 " fill-opacity="1" fill-rule="nonzero"></path><path fill="#323a42" d="M 81.519531 59.765625 C 80.925781 59.765625 80.335938 59.429688 80.046875 58.90625 C 78.625 56.339844 77.722656 53.4375 77.4375 50.511719 C 77.417969 50.328125 77.542969 50.160156 77.722656 50.125 C 79.597656 49.757812 81.402344 49.542969 83.144531 49.332031 C 83.246094 49.316406 83.34375 49.351562 83.417969 49.414062 C 83.492188 49.480469 83.539062 49.574219 83.539062 49.675781 C 83.648438 53.253906 83.53125 55.847656 83.140625 58.351562 C 83.035156 59.035156 82.46875 59.617188 81.792969 59.742188 C 81.703125 59.757812 81.609375 59.765625 81.519531 59.765625 M 78.175781 50.765625 C 78.488281 53.484375 79.34375 56.171875 80.667969 58.558594 C 80.855469 58.902344 81.285156 59.109375 81.667969 59.035156 C 82.046875 58.96875 82.378906 58.625 82.441406 58.242188 C 82.808594 55.875 82.929688 53.417969 82.84375 50.089844 C 81.332031 50.269531 79.777344 50.464844 78.175781 50.765625 " fill-opacity="1" fill-rule="nonzero"></path><path fill="#323a42" d="M 83.222656 53.859375 C 81.566406 53.976562 79.980469 54.902344 79.035156 56.273438 C 79.226562 56.464844 79.359375 56.6875 79.445312 56.929688 C 80.242188 55.589844 81.722656 54.675781 83.269531 54.570312 C 83.21875 54.335938 83.199219 54.09375 83.222656 53.859375 " fill-opacity="1" fill-rule="nonzero"></path><path fill="#323a42" d="M 88.585938 42.851562 C 88.519531 42.851562 88.453125 42.835938 88.394531 42.792969 L 86.460938 41.519531 C 86.296875 41.410156 86.25 41.191406 86.359375 41.027344 C 86.464844 40.859375 86.683594 40.8125 86.847656 40.921875 L 88.78125 42.195312 C 88.945312 42.304688 88.992188 42.527344 88.886719 42.691406 C 88.816406 42.796875 88.703125 42.851562 88.585938 42.851562 " fill-opacity="1" fill-rule="nonzero"></path><path fill="#fefefe" d="M 34.929688 46.277344 C 34.683594 46.058594 34.257812 46.078125 34.035156 46.324219 C 33.808594 46.566406 33.820312 46.992188 34.054688 47.226562 C 34.292969 47.457031 34.71875 47.457031 34.953125 47.222656 C 35.1875 46.988281 35.21875 46.539062 34.929688 46.277344 " fill-opacity="1" fill-rule="nonzero"></path><path fill="#fefefe" d="M 33.890625 47.613281 C 33.714844 47.460938 33.394531 47.570312 33.347656 47.796875 C 33.300781 48.023438 33.550781 48.253906 33.769531 48.183594 C 33.988281 48.113281 34.070312 47.773438 33.890625 47.613281 " fill-opacity="1" fill-rule="nonzero"></path><path fill="#fefefe" d="M 46.375 47.554688 C 46.125 47.332031 45.703125 47.351562 45.476562 47.59375 C 45.253906 47.839844 45.265625 48.265625 45.5 48.5 C 45.738281 48.730469 46.160156 48.730469 46.398438 48.496094 C 46.632812 48.261719 46.664062 47.8125 46.375 47.554688 " fill-opacity="1" fill-rule="nonzero"></path><path fill="#fefefe" d="M 45.332031 48.886719 C 45.160156 48.734375 44.839844 48.84375 44.792969 49.070312 C 44.742188 49.296875 44.996094 49.527344 45.214844 49.457031 C 45.433594 49.386719 45.515625 49.046875 45.332031 48.886719 " fill-opacity="1" fill-rule="nonzero"></path></svg>